<?xml version="1.0" ?><svg fill="none" height="24" viewBox="0 0 24 24" width="24" xmlns="http://www.w3.org/2000/svg"><path clip-rule="evenodd" d="M14 7C10.134 7 7 10.134 7 14C7 17.866 10.134 21 14 21C17.866 21 21 17.866 21 14C21 13.2843 20.8923 12.5919 20.6914 11.9391C20.5691 11.5416 20.2135 11.2613 19.7984 11.2352C19.3833 11.209 18.9954 11.4426 18.8242 11.8217C18.5097 12.5184 17.81 13 17 13C15.8954 13 15 12.1046 15 11C15 10.19 15.4816 9.49034 16.1783 9.17578C16.5574 9.00463 16.791 8.61671 16.7648 8.20161C16.7387 7.7865 16.4584 7.4309 16.0609 7.30858C15.4081 7.10774 14.7157 7 14 7Z" fill="black" fill-rule="evenodd"/><path clip-rule="evenodd" d="M12 1C5.92487 1 1 5.92487 1 12C1 17.3333 4.79451 21.7781 9.83058 22.7859C10.3344 22.8868 10.8327 22.5894 10.983 22.098C11.1334 21.6067 10.887 21.0814 10.413 20.883C7.52554 19.674 5.5 16.8224 5.5 13.5C5.5 9.08172 9.08172 5.5 13.5 5.5C16.8224 5.5 19.674 7.52554 20.883 10.413C21.0814 10.887 21.6067 11.1334 22.098 10.983C22.5894 10.8327 22.8868 10.3344 22.7859 9.83058C21.7781 4.79451 17.3333 1 12 1Z" fill="black" fill-rule="evenodd"/></svg>