<?xml version="1.0" standalone="no"?>
<!DOCTYPE svg PUBLIC "-//W3C//DTD SVG 20010904//EN"
 "http://www.w3.org/TR/2001/REC-SVG-20010904/DTD/svg10.dtd">
<svg version="1.0" xmlns="http://www.w3.org/2000/svg"
 width="394.000000pt" height="128.000000pt" viewBox="0 0 394.000000 128.000000"
 preserveAspectRatio="xMidYMid meet">

<g transform="translate(0.000000,128.000000) scale(0.100000,-0.100000)"
fill="#000000" stroke="none">
<path d="M523 885 c-48 -21 -75 -69 -70 -127 6 -66 29 -96 99 -126 l60 -26 -4
-74 c-3 -71 -5 -76 -41 -108 -31 -29 -44 -34 -86 -34 -118 0 -131 28 -131 276
l0 185 30 10 c53 19 32 29 -60 29 -92 0 -113 -10 -60 -29 l30 -10 0 -188 c0
-207 7 -236 63 -277 26 -19 42 -21 165 -21 109 1 143 4 169 18 73 39 101 125
65 197 -22 46 -18 48 43 19 57 -27 75 -52 75 -104 -1 -62 -45 -105 -109 -105
-16 0 -36 -3 -45 -6 -28 -11 -17 -24 20 -24 64 0 120 20 155 56 28 29 33 42
36 91 3 44 0 65 -15 88 -20 32 -24 35 -145 89 -85 38 -104 63 -92 123 8 42 46
68 102 68 52 0 83 -27 92 -82 4 -25 12 -39 24 -41 15 -3 17 5 17 61 l0 64 -39
11 c-52 16 -134 15 -175 -2 -52 -21 -76 -60 -76 -120 0 -30 6 -61 16 -74 19
-27 9 -28 -49 -3 -54 23 -77 53 -77 101 0 51 35 81 100 88 28 2 53 9 56 13 9
14 -108 9 -143 -6z m158 -321 c18 -19 24 -37 24 -71 0 -38 -5 -49 -33 -74 -18
-16 -43 -29 -57 -29 -30 0 -31 3 -4 39 14 20 23 50 26 95 3 36 9 66 13 66 3 0
17 -12 31 -26z"/>
<path d="M1110 636 c0 -146 4 -237 10 -241 7 -4 10 77 10 234 0 154 -4 241
-10 241 -6 0 -10 -85 -10 -234z"/>
<path d="M1298 858 c7 -7 12 -42 12 -85 0 -90 17 -113 83 -113 68 0 79 15 86
106 4 43 10 85 14 92 6 9 -1 12 -24 12 -26 0 -29 -2 -20 -14 8 -9 11 -43 9
-92 -3 -76 -4 -79 -31 -88 -50 -18 -62 0 -65 94 -2 60 1 86 10 91 8 5 -7 9
-36 9 -39 0 -47 -3 -38 -12z"/>
<path d="M1545 853 c14 -14 17 -30 13 -90 -3 -40 -11 -79 -18 -88 -11 -13 -8
-15 19 -15 29 0 43 14 20 22 -6 2 -9 31 -7 73 l3 69 59 -82 c77 -106 89 -105
91 10 1 54 6 92 14 102 12 14 9 16 -19 16 -27 0 -30 -2 -21 -14 7 -9 11 -39 9
-77 l-3 -63 -58 77 c-50 67 -62 77 -88 77 -29 0 -29 -1 -14 -17z"/>
<path d="M1788 863 c16 -6 17 -174 0 -191 -9 -9 -1 -12 37 -12 38 0 46 3 37
12 -7 7 -12 43 -12 93 0 50 5 86 12 93 9 9 1 12 -37 11 -28 0 -44 -3 -37 -6z"/>
<path d="M1920 833 c9 -21 27 -69 40 -106 29 -91 45 -87 81 22 16 46 36 92 45
103 16 17 15 18 -22 17 -21 0 -33 -3 -26 -6 6 -2 12 -11 12 -20 0 -25 -31
-123 -39 -123 -8 0 -41 98 -41 123 0 8 6 18 13 20 6 3 -9 6 -35 6 l-46 1 18
-37z"/>
<path d="M2128 858 c7 -7 12 -43 12 -93 0 -50 -5 -86 -12 -93 -9 -9 6 -12 70
-12 l82 0 0 30 c0 17 -4 30 -10 30 -5 0 -10 -7 -10 -15 0 -18 -43 -37 -65 -29
-18 7 -21 79 -4 89 5 4 19 -1 30 -11 18 -17 19 -16 19 22 -1 36 -2 37 -15 20
-27 -36 -57 1 -39 48 9 23 51 20 66 -4 17 -27 28 -25 28 5 0 25 -1 25 -82 25
-64 0 -79 -3 -70 -12z"/>
<path d="M2328 858 c16 -16 16 -170 0 -186 -9 -9 -3 -12 30 -12 38 0 57 13 31
22 -6 2 -9 21 -7 43 l3 40 34 -52 c28 -44 39 -53 62 -53 l29 0 -40 53 c-38 50
-39 52 -20 61 24 11 37 53 23 75 -7 12 -30 17 -84 19 -59 2 -71 0 -61 -10z
m93 -8 c25 -14 24 -45 -3 -64 -28 -20 -38 -12 -38 28 0 46 8 53 41 36z"/>
<path d="M2568 853 c-39 -46 -29 -75 38 -103 45 -20 56 -44 32 -68 -19 -19
-46 -14 -64 13 -21 33 -36 32 -32 -2 3 -26 7 -28 51 -31 115 -7 145 94 37 127
-36 11 -41 15 -38 39 2 21 9 28 31 30 22 3 30 -1 34 -17 8 -31 31 -27 25 4 -4
22 -9 25 -52 25 -32 0 -52 -5 -62 -17z"/>
<path d="M2748 858 c16 -16 16 -170 0 -186 -9 -9 -2 -12 32 -12 34 0 41 3 32
12 -16 16 -16 170 0 186 9 9 2 12 -32 12 -34 0 -41 -3 -32 -12z"/>
<path d="M2868 858 c16 -16 16 -170 0 -187 -22 -23 135 -10 161 13 42 38 36
152 -10 176 -10 6 -50 10 -90 10 -57 0 -70 -3 -61 -12z m130 -25 c13 -18 16
-111 4 -129 -12 -18 -52 -36 -68 -30 -11 4 -14 26 -14 89 0 46 3 87 7 91 11
11 56 -3 71 -21z"/>
<path d="M3146 803 c-14 -37 -30 -80 -35 -95 -6 -16 -15 -28 -21 -28 -5 0 -10
-4 -10 -10 0 -5 14 -10 30 -10 29 0 42 14 20 22 -7 2 -7 14 1 36 9 26 16 32
40 32 23 0 32 -6 40 -27 7 -20 7 -33 0 -45 -10 -16 -6 -18 35 -18 42 0 45 2
33 16 -8 10 -28 56 -45 103 -19 51 -37 87 -46 89 -11 2 -23 -17 -42 -65z m43
-13 c9 -28 8 -30 -15 -30 -26 0 -27 3 -18 38 9 30 20 28 33 -8z"/>
<path d="M3328 858 c15 -15 17 -178 2 -178 -5 0 -10 -5 -10 -11 0 -8 25 -10
76 -7 96 5 114 21 114 108 0 81 -24 100 -123 100 -55 0 -68 -3 -59 -12z m113
-17 c20 -16 24 -28 24 -75 0 -61 -14 -84 -55 -88 -25 -3 -25 -2 -28 76 -2 44
-1 85 2 93 7 18 30 16 57 -6z"/>
<path d="M1701 612 c-21 -7 -11 -18 16 -17 14 0 28 5 30 10 3 10 -24 14 -46 7z"/>
<path d="M3250 605 c-16 -19 0 -19 26 0 16 12 16 14 3 15 -9 0 -22 -7 -29 -15z"/>
<path d="M1331 551 c-35 -35 -22 -62 42 -89 21 -9 28 -18 25 -35 -4 -30 -43
-35 -60 -8 -17 28 -30 27 -26 -1 6 -42 100 -36 119 6 15 32 0 57 -43 72 -25 8
-33 16 -33 35 0 32 44 41 52 10 7 -28 25 -27 21 2 -4 32 -68 37 -97 8z"/>
<path d="M1481 556 c14 -15 11 -140 -3 -155 -11 -10 0 -11 52 -9 61 3 65 5 68
28 l4 25 -22 -23 c-31 -33 -54 -25 -58 21 -2 28 0 37 12 37 9 0 16 -4 16 -10
0 -5 5 -10 10 -10 6 0 10 11 10 25 0 14 -4 25 -10 25 -5 0 -10 -4 -10 -10 0
-5 -7 -10 -16 -10 -11 0 -14 8 -12 32 4 38 34 51 55 22 15 -20 28 -13 20 11
-5 12 -20 15 -66 13 -38 -2 -56 -7 -50 -12z"/>
<path d="M1649 493 c2 -48 -1 -78 -9 -88 -10 -13 -8 -15 14 -15 26 0 35 13 16
25 -11 7 -14 105 -2 105 4 -1 28 -30 55 -65 26 -36 52 -65 57 -65 6 0 10 33
10 74 0 41 2 81 5 88 4 9 -2 14 -15 15 -17 2 -18 -1 -10 -17 12 -22 14 -100 3
-100 -5 1 -27 27 -51 58 -23 32 -50 58 -60 58 -15 0 -17 -9 -13 -73z"/>
<path d="M1865 545 c-56 -55 -18 -155 60 -155 51 0 85 36 85 90 0 54 -34 90
-85 90 -25 0 -44 -8 -60 -25z m93 3 c7 -7 12 -37 12 -68 0 -60 -11 -80 -45
-80 -34 0 -45 20 -45 80 0 60 11 80 45 80 12 0 26 -5 33 -12z"/>
<path d="M2049 557 c15 -15 14 -140 -1 -155 -9 -9 -4 -12 24 -12 36 0 36 0 28
35 -11 49 3 51 29 5 17 -30 29 -40 47 -40 l26 0 -31 39 c-37 46 -37 45 -11 71
22 22 24 29 11 50 -7 9 -30 15 -71 16 -43 1 -58 -2 -51 -9z m84 -19 c13 -20 2
-48 -18 -48 -11 0 -15 10 -15 36 0 37 14 42 33 12z"/>
<path d="M2315 477 l0 -89 58 4 c69 5 87 21 94 80 4 33 1 49 -15 68 -17 21
-29 25 -78 25 l-59 0 0 -88z m95 63 c40 -40 15 -140 -35 -140 -12 0 -15 16
-15 80 0 87 10 100 50 60z"/>
<path d="M2511 548 c13 -25 11 -132 -3 -146 -9 -9 3 -12 55 -12 65 0 67 1 67
25 0 14 -4 25 -10 25 -5 0 -10 -6 -10 -14 0 -16 -34 -31 -50 -21 -17 10 -12
75 5 75 8 0 15 -4 15 -10 0 -5 5 -10 10 -10 6 0 10 11 10 25 0 14 -4 25 -10
25 -5 0 -10 -4 -10 -10 0 -5 -7 -10 -16 -10 -11 0 -14 8 -12 32 3 38 27 48 52
22 19 -19 32 -13 23 11 -5 12 -20 15 -66 13 -52 -3 -58 -5 -50 -20z"/>
<path d="M2767 552 c-31 -34 -22 -61 28 -82 45 -19 55 -36 33 -58 -19 -19 -44
-14 -62 11 l-16 22 2 -25 c3 -20 9 -26 36 -28 47 -5 84 22 80 56 -2 21 -13 32
-45 47 -47 21 -57 49 -21 61 16 5 27 0 41 -17 l19 -24 -3 25 c-3 21 -10 26
-40 28 -24 2 -40 -3 -52 -16z"/>
<path d="M2915 478 l0 -88 35 0 c26 0 31 3 22 12 -15 15 -16 140 -2 154 7 7
-1 10 -22 10 l-33 0 0 -88z"/>
<path d="M3020 549 c13 -24 13 -115 0 -140 -10 -17 -7 -19 26 -19 31 0 35 2
24 14 -19 24 -8 61 20 64 36 5 50 20 50 53 0 35 -11 42 -77 44 -47 2 -51 1
-43 -16z m83 -18 c6 -23 -10 -51 -28 -51 -10 0 -15 11 -15 33 0 19 3 36 6 40
10 10 32 -3 37 -22z"/>
<path d="M3229 543 c-6 -16 -17 -46 -25 -68 -8 -22 -21 -50 -30 -62 -14 -22
-13 -23 10 -23 19 0 23 4 19 19 -3 10 1 30 8 42 7 13 12 30 11 37 -2 6 1 20 6
29 8 14 10 14 17 -6 4 -12 4 -25 1 -28 -3 -3 2 -12 10 -21 10 -9 14 -27 12
-44 -4 -26 -2 -28 29 -28 31 0 44 12 24 24 -4 3 -20 39 -36 81 -15 41 -31 75
-36 75 -5 0 -14 -12 -20 -27z"/>
<path d="M3365 479 c0 -78 2 -89 18 -89 13 0 16 6 13 23 -12 57 -15 107 -8
107 4 0 30 -29 56 -65 26 -36 52 -65 57 -65 5 0 9 33 9 74 0 41 5 78 10 81 18
11 11 20 -16 22 -19 1 -23 -2 -15 -10 6 -6 11 -36 11 -65 l0 -55 -49 64 c-27
36 -57 65 -67 66 -17 1 -19 -7 -19 -88z"/>
</g>
</svg>
